NormStroke.ufo
<glyph name="quotedbl" format="2">
  <advance width="480"/>
  <unicode hex="0022"/>
  <outline>
    <contour>
      <point x="120" y="600" type="move"/>
      <point x="160" y="760" type="line"/>
    </contour>
    <contour>
      <point x="320" y="600" type="move"/>
      <point x="360" y="760" type="line"/>
    </contour>
  </outline>
</glyph>
<glyph name="percent" format="2">
  <advance width="880"/>
  <unicode hex="0025"/>
  <outline>
    <contour>
      <point x="120" y="40" type="move"/>
      <point x="760" y="760" type="line"/>
    </contour>
    <contour>
      <point x="120" y="640" type="curve" smooth="yes"/>
      <point x="120" y="706.23"/>
      <point x="173.77" y="760"/>
      <point x="240" y="760" type="curve" smooth="yes"/>
      <point x="306.23" y="760"/>
      <point x="360" y="706.23"/>
      <point x="360" y="640" type="curve" smooth="yes"/>
      <point x="360" y="573.77"/>
      <point x="306.23" y="520"/>
      <point x="240" y="520" type="curve" smooth="yes"/>
      <point x="173.77" y="520"/>
      <point x="120" y="573.77"/>
    </contour>
    <contour>
      <point x="520" y="160" type="move" smooth="yes"/>
      <point x="520" y="226.23"/>
      <point x="573.77" y="280"/>
      <point x="640" y="280" type="curve" smooth="yes"/>
      <point x="706.23" y="280"/>
      <point x="760" y="226.23"/>
      <point x="760" y="160" type="curve" smooth="yes"/>
      <point x="760" y="93.7702"/>
      <point x="706.23" y="40"/>
      <point x="640" y="40" type="curve" smooth="yes"/>
      <point x="573.77" y="40"/>
      <point x="520" y="93.7702"/>
      <point x="520" y="160" type="curve" smooth="yes"/>
    </contour>
  </outline>
</glyph>
<glyph name="parenleft" format="2">
  <advance width="320"/>
  <unicode hex="0028"/>
  <outline>
    <contour>
      <point x="200" y="-40" type="move" smooth="yes"/>
      <point x="148.579" y="96.7331"/>
      <point x="120.447" y="244.829"/>
      <point x="120.447" y="399.444" type="curve" smooth="yes"/>
      <point x="120.447" y="554.058"/>
      <point x="148.579" y="703.267"/>
      <point x="200" y="840" type="curve" smooth="yes"/>
    </contour>
  </outline>
</glyph>
<glyph name="parenright" format="2">
  <advance width="320"/>
  <unicode hex="0029"/>
  <outline>
    <contour>
      <point x="120" y="840" type="move" smooth="yes"/>
      <point x="171.421" y="703.267"/>
      <point x="199.553" y="555.171"/>
      <point x="199.553" y="400.556" type="curve" smooth="yes"/>
      <point x="199.553" y="245.942"/>
      <point x="171.421" y="96.7331"/>
      <point x="120" y="-40" type="curve" smooth="yes"/>
    </contour>
  </outline>
</glyph>
<glyph name="asterisk" format="2">
  <advance width="560"/>
  <unicode hex="002A"/>
  <outline>
    <contour>
      <point x="120" y="280" type="move"/>
      <point x="440" y="280" type="line"/>
    </contour>
    <contour>
      <point x="360" y="141.4" type="move"/>
      <point x="200" y="418.6" type="line"/>
    </contour>
    <contour>
      <point x="200" y="141.4" type="move"/>
      <point x="360" y="418.6" type="line"/>
    </contour>
  </outline>
</glyph>
<glyph name="plus" format="2">
  <advance width="560"/>
  <unicode hex="002B"/>
  <outline>
    <contour>
      <point x="120" y="280" type="move"/>
      <point x="440" y="280" type="line"/>
    </contour>
    <contour>
      <point x="280" y="120" type="move"/>
      <point x="280" y="440" type="line"/>
    </contour>
  </outline>
</glyph>
<glyph name="comma" format="2">
  <advance width="280"/>
  <unicode hex="002C"/>
  <outline>
    <contour>
      <point x="120" y="-120" type="move"/>
      <point x="160" y="40" type="line"/>
    </contour>
  </outline>
</glyph>
<glyph name="slash" format="2">
  <advance width="560"/>
  <unicode hex="002F"/>
  <outline>
    <contour>
      <point x="120" y="40" type="move"/>
      <point x="440" y="760" type="line"/>
    </contour>
  </outline>
</glyph>
<glyph name="one" format="2">
  <advance width="400"/>
  <unicode hex="0031"/>
  <outline>
    <contour>
      <point x="120" y="600" type="move"/>
      <point x="280" y="760" type="line"/>
      <point x="280" y="40" type="line"/>
    </contour>
  </outline>
</glyph>
<glyph name="eight" format="2">
  <advance width="560"/>
  <unicode hex="0038"/>
  <outline>
    <contour>
      <point x="120" y="280" type="line" smooth="yes"/>
      <point x="120" y="368.306"/>
      <point x="191.694" y="440"/>
      <point x="280" y="440" type="curve" smooth="yes"/>
      <point x="368.306" y="440"/>
      <point x="440" y="368.306"/>
      <point x="440" y="280" type="curve" smooth="yes"/>
      <point x="440" y="200" type="line" smooth="yes"/>
      <point x="440" y="111.694"/>
      <point x="368.306" y="40"/>
      <point x="280" y="40" type="curve" smooth="yes"/>
      <point x="191.694" y="40"/>
      <point x="120" y="111.694"/>
      <point x="120" y="200" type="curve" smooth="yes"/>
    </contour>
    <contour>
      <point x="280" y="440" type="move" smooth="yes"/>
      <point x="191.694" y="440"/>
      <point x="120" y="511.694"/>
      <point x="120" y="600" type="curve" smooth="yes"/>
      <point x="120" y="688.306"/>
      <point x="191.694" y="760"/>
      <point x="280" y="760" type="curve" smooth="yes"/>
      <point x="368.306" y="760"/>
      <point x="440" y="688.306"/>
      <point x="440" y="600" type="curve" smooth="yes"/>
      <point x="440" y="511.694"/>
      <point x="368.306" y="440"/>
      <point x="280" y="440" type="curve" smooth="yes"/>
    </contour>
  </outline>
</glyph>
<glyph name="less" format="2">
  <advance width="560"/>
  <unicode hex="003C"/>
  <outline>
    <contour>
      <point x="440" y="160" type="move"/>
      <point x="120" y="280" type="line"/>
      <point x="440" y="400" type="line"/>
    </contour>
  </outline>
</glyph>
<glyph name="equal" format="2">
  <advance width="560"/>
  <unicode hex="003D"/>
  <outline>
    <contour>
      <point x="120" y="160" type="move"/>
      <point x="440" y="160" type="line"/>
    </contour>
    <contour>
      <point x="120" y="400" type="move"/>
      <point x="440" y="400" type="line"/>
    </contour>
  </outline>
</glyph>
<glyph name="greater" format="2">
  <advance width="560"/>
  <unicode hex="003E"/>
  <outline>
    <contour>
      <point x="120" y="160" type="move"/>
      <point x="440" y="280" type="line"/>
      <point x="120" y="400" type="line"/>
    </contour>
  </outline>
</glyph>
<glyph name="E" format="2">
  <advance width="560"/>
  <unicode hex="0045"/>
  <outline>
    <contour>
      <point x="440" y="40" type="move"/>
      <point x="120" y="40" type="line"/>
      <point x="120" y="760" type="line"/>
      <point x="440" y="760" type="line"/>
    </contour>
    <contour>
      <point x="120" y="440" type="move"/>
      <point x="360" y="440" type="line"/>
    </contour>
  </outline>
</glyph>
<glyph name="F" format="2">
  <advance width="560"/>
  <unicode hex="0046"/>
  <outline>
    <contour>
      <point x="120" y="40" type="move"/>
      <point x="120" y="760" type="line"/>
      <point x="440" y="760" type="line"/>
    </contour>
    <contour>
      <point x="120" y="440" type="move"/>
      <point x="440" y="440" type="line"/>
    </contour>
  </outline>
</glyph>
<glyph name="I" format="2">
  <advance width="240"/>
  <unicode hex="0049"/>
  <outline>
    <contour>
      <point x="120" y="40" type="move"/>
      <point x="120" y="760" type="line"/>
    </contour>
  </outline>
</glyph>
<glyph name="O" format="2">
  <advance width="640"/>
  <unicode hex="004F"/>
  <outline>
    <contour>
      <point x="120" y="560" type="move" smooth="yes"/>
      <point x="120" y="670.383"/>
      <point x="209.617" y="760"/>
      <point x="320" y="760" type="curve" smooth="yes"/>
      <point x="430.383" y="760"/>
      <point x="520" y="670.383"/>
      <point x="520" y="560" type="curve" smooth="yes"/>
      <point x="520" y="240" type="line" smooth="yes"/>
      <point x="520" y="129.617"/>
      <point x="430.383" y="40"/>
      <point x="320" y="40" type="curve" smooth="yes"/>
      <point x="209.617" y="40"/>
      <point x="120" y="129.617"/>
      <point x="120" y="240" type="curve" smooth="yes"/>
      <point x="120" y="560" type="line"/>
    </contour>
  </outline>
</glyph>
<glyph name="W" format="2">
  <advance width="880"/>
  <unicode hex="0057"/>
  <outline>
    <contour>
      <point x="120" y="760" type="move"/>
      <point x="280" y="40" type="line"/>
      <point x="440" y="520" type="line"/>
      <point x="600" y="40" type="line"/>
      <point x="760" y="760" type="line"/>
    </contour>
  </outline>
</glyph>
<glyph name="Y" format="2">
  <advance width="720"/>
  <unicode hex="0059"/>
  <outline>
    <contour>
      <point x="120" y="760" type="move"/>
      <point x="360" y="412.47" type="line"/>
      <point x="600" y="760" type="line"/>
    </contour>
    <contour>
      <point x="360" y="40" type="move"/>
      <point x="360" y="440" type="line"/>
    </contour>
  </outline>
</glyph>
<glyph name="bracketright" format="2">
  <advance width="320"/>
  <unicode hex="005D"/>
  <outline>
    <contour>
      <point x="120" y="-40" type="move"/>
      <point x="200" y="-40" type="line"/>
      <point x="200" y="840" type="line"/>
      <point x="120" y="840" type="line"/>
    </contour>
  </outline>
</glyph>
<glyph name="underscore" format="2">
  <advance width="1120"/>
  <unicode hex="005F"/>
  <outline>
    <contour>
      <point x="120" y="-200" type="move"/>
      <point x="1000" y="-200" type="line"/>
    </contour>
  </outline>
</glyph>
<glyph name="b" format="2">
  <advance width="560"/>
  <unicode hex="0062"/>
  <outline>
    <contour>
      <point x="120" y="760" type="move"/>
      <point x="120" y="40" type="line"/>
      <point x="320" y="40" type="line" smooth="yes"/>
      <point x="386.23" y="40"/>
      <point x="440" y="93.7702"/>
      <point x="440" y="160" type="curve" smooth="yes"/>
      <point x="440" y="400" type="line" smooth="yes"/>
      <point x="440" y="466.23"/>
      <point x="386.23" y="520"/>
      <point x="320" y="520" type="curve" smooth="yes"/>
      <point x="120" y="520" type="line"/>
    </contour>
  </outline>
</glyph>
<glyph name="j" format="2">
  <advance width="400"/>
  <unicode hex="006A"/>
  <outline>
    <contour>
      <point x="120" y="-200" type="move"/>
      <point x="160" y="-200" type="line" smooth="yes"/>
      <point x="226.23" y="-200"/>
      <point x="280" y="-146.23"/>
      <point x="280" y="-80" type="curve" smooth="yes"/>
      <point x="280" y="520" type="line"/>
    </contour>
    <contour>
      <point x="280" y="720" type="move"/>
      <point x="280" y="760" type="line"/>
    </contour>
  </outline>
</glyph>
<glyph name="k" format="2">
  <advance width="560"/>
  <unicode hex="006B"/>
  <outline>
    <contour>
      <point x="120" y="760" type="move"/>
      <point x="120" y="40" type="line"/>
    </contour>
    <contour>
      <point x="120" y="280" type="move"/>
      <point x="440" y="520" type="line"/>
    </contour>
    <contour>
      <point x="440" y="40" type="move"/>
      <point x="272" y="359.2" type="line"/>
    </contour>
  </outline>
</glyph>
<glyph name="l" format="2">
  <advance width="320"/>
  <unicode hex="006C"/>
  <outline>
    <contour>
      <point x="120" y="760" type="move"/>
      <point x="120" y="120" type="line" smooth="yes"/>
      <point x="120" y="75.8468"/>
      <point x="155.847" y="40"/>
      <point x="200" y="40" type="curve" smooth="yes"/>
    </contour>
  </outline>
</glyph>
<glyph name="m" format="2">
  <advance width="720"/>
  <unicode hex="006D"/>
  <outline>
    <contour>
      <point x="120" y="40" type="move"/>
      <point x="120" y="520" type="line"/>
      <point x="480" y="520" type="line" smooth="yes"/>
      <point x="546.23" y="520"/>
      <point x="600" y="466.23"/>
      <point x="600" y="400" type="curve" smooth="yes"/>
      <point x="600" y="40" type="line"/>
    </contour>
    <contour>
      <point x="360" y="40" type="move"/>
      <point x="360" y="520" type="line"/>
    </contour>
  </outline>
</glyph>
<glyph name="r" format="2">
  <advance width="480"/>
  <unicode hex="0072"/>
  <outline>
    <contour>
      <point x="120" y="40" type="move"/>
      <point x="120" y="520" type="line"/>
      <point x="360" y="520" type="line"/>
      <point x="360" y="440" type="line"/>
    </contour>
  </outline>
</glyph>
<glyph name="x" format="2">
  <advance width="560"/>
  <unicode hex="0078"/>
  <outline>
    <contour>
      <point x="120" y="40" type="move"/>
      <point x="440" y="520" type="line"/>
    </contour>
    <contour>
      <point x="120" y="520" type="move"/>
      <point x="440" y="40" type="line"/>
    </contour>
  </outline>
</glyph>
<glyph name="z" format="2">
  <advance width="560"/>
  <unicode hex="007A"/>
  <outline>
    <contour>
      <point x="120" y="520" type="move"/>
      <point x="440" y="520" type="line"/>
      <point x="120" y="40" type="line"/>
      <point x="440" y="40" type="line"/>
    </contour>
  </outline>
</glyph>
<glyph name="braceright" format="2">
  <advance width="400"/>
  <unicode hex="007D"/>
  <outline>
    <contour>
      <point x="120" y="-40" type="move" smooth="yes"/>
      <point x="164.153" y="-40"/>
      <point x="200" y="-4.1532"/>
      <point x="200" y="40" type="curve" smooth="yes"/>
      <point x="200" y="320" type="line" smooth="yes"/>
      <point x="200" y="364.153"/>
      <point x="235.847" y="400"/>
      <point x="280" y="400" type="curve"/>
      <point x="235.847" y="400"/>
      <point x="200" y="435.847"/>
      <point x="200" y="480" type="curve" smooth="yes"/>
      <point x="200" y="760" type="line" smooth="yes"/>
      <point x="200" y="804.153"/>
      <point x="164.153" y="840"/>
      <point x="120" y="840" type="curve" smooth="yes"/>
    </contour>
  </outline>
</glyph>
<glyph name="asciitilde" format="2">
  <advance width="560"/>
  <unicode hex="007E"/>
  <outline>
    <contour>
      <point x="120" y="240" type="move"/>
      <point x="152" y="264" type="line" smooth="yes"/>
      <point x="165.363" y="274.022"/>
      <point x="181.96" y="279.962"/>
      <point x="199.933" y="279.962" type="curve" smooth="yes"/>
      <point x="217.906" y="279.962"/>
      <point x="234.637" y="274.022"/>
      <point x="248" y="264" type="curve"/>
      <point x="247.866" y="264"/>
      <point x="312" y="216"/>
      <point x="312" y="216" type="curve" smooth="yes"/>
      <point x="325.363" y="205.978"/>
      <point x="341.96" y="200.038"/>
      <point x="359.933" y="200.038" type="curve" smooth="yes"/>
      <point x="377.906" y="200.038"/>
      <point x="394.637" y="205.978"/>
      <point x="408" y="216" type="curve"/>
      <point x="407.866" y="216"/>
      <point x="440" y="240"/>
      <point x="440" y="240" type="curve" smooth="yes"/>
    </contour>
  </outline>
</glyph>
<glyph name="sterling" format="2">
  <advance width="720"/>
  <unicode hex="00A3"/>
  <outline>
    <contour>
      <point x="600" y="160" type="move" smooth="yes"/>
      <point x="600" y="93.7702"/>
      <point x="546.23" y="40"/>
      <point x="480" y="40" type="curve" smooth="yes"/>
      <point x="120" y="40" type="line"/>
      <point x="186.23" y="40"/>
      <point x="240" y="93.7702"/>
      <point x="240" y="160" type="curve" smooth="yes"/>
      <point x="240" y="600" type="line" smooth="yes"/>
      <point x="240" y="688.306"/>
      <point x="311.694" y="760"/>
      <point x="400" y="760" type="curve" smooth="yes"/>
      <point x="488.306" y="760"/>
      <point x="560" y="688.306"/>
      <point x="560" y="600" type="curve" smooth="yes"/>
    </contour>
    <contour>
      <point x="120" y="400" type="move"/>
      <point x="400" y="400" type="line"/>
    </contour>
  </outline>
</glyph>
<glyph name="copyright" format="2">
  <advance width="880"/>
  <unicode hex="00A9"/>
  <outline>
    <contour>
      <point x="440" y="120" type="curve" smooth="yes"/>
      <point x="263.387" y="120"/>
      <point x="120" y="263.387"/>
      <point x="120" y="440" type="curve" smooth="yes"/>
      <point x="120" y="616.613"/>
      <point x="263.387" y="760"/>
      <point x="440" y="760" type="curve" smooth="yes"/>
      <point x="616.613" y="760"/>
      <point x="760" y="616.613"/>
      <point x="760" y="440" type="curve" smooth="yes"/>
      <point x="760" y="263.387"/>
      <point x="616.613" y="120"/>
    </contour>
    <contour>
      <point x="520" y="280" type="move"/>
      <point x="400" y="280" type="line" smooth="yes"/>
      <point x="355.847" y="280"/>
      <point x="320" y="315.847"/>
      <point x="320" y="360" type="curve" smooth="yes"/>
      <point x="320" y="520" type="line" smooth="yes"/>
      <point x="320" y="564.153"/>
      <point x="355.847" y="600"/>
      <point x="400" y="600" type="curve" smooth="yes"/>
      <point x="520" y="600" type="line"/>
    </contour>
  </outline>
</glyph>
<glyph name="guillemotright" format="2">
  <advance width="640"/>
  <unicode hex="00BB"/>
  <outline>
    <contour>
      <point x="120" y="80" type="move"/>
      <point x="280" y="280" type="line"/>
      <point x="120" y="480" type="line"/>
    </contour>
    <contour>
      <point x="360" y="80" type="move"/>
      <point x="520" y="280" type="line"/>
      <point x="360" y="480" type="line"/>
    </contour>
  </outline>
</glyph>
<glyph name="Aacute" format="2">
  <advance width="720"/>
  <unicode hex="00C1"/>
  <outline>
    <contour>
      <point x="120" y="40" type="move"/>
      <point x="360" y="760" type="line"/>
      <point x="600" y="40" type="line"/>
    </contour>
    <contour>
      <point x="200" y="240" type="move"/>
      <point x="520" y="240" type="line"/>
    </contour>
    <contour>
      <point x="280" y="960" type="move"/>
      <point x="440" y="1080" type="line"/>
    </contour>
  </outline>
</glyph>
<glyph name="Acircumflex" format="2">
  <advance width="720"/>
  <unicode hex="00C2"/>
  <outline>
    <contour>
      <point x="120" y="40" type="move"/>
      <point x="360" y="760" type="line"/>
      <point x="600" y="40" type="line"/>
    </contour>
    <contour>
      <point x="200" y="240" type="move"/>
      <point x="520" y="240" type="line"/>
    </contour>
    <contour>
      <point x="240" y="960" type="move"/>
      <point x="360" y="1080" type="line"/>
      <point x="480" y="960" type="line"/>
    </contour>
  </outline>
</glyph>
<glyph name="Aring" format="2">
  <advance width="720"/>
  <unicode hex="00C5"/>
  <outline>
    <contour>
      <point x="120" y="40" type="move"/>
      <point x="360" y="760" type="line"/>
      <point x="600" y="40" type="line"/>
    </contour>
    <contour>
      <point x="200" y="240" type="move"/>
      <point x="520" y="240" type="line"/>
    </contour>
    <contour>
      <point x="360" y="880" type="move" smooth="yes"/>
      <point x="304.808" y="880"/>
      <point x="260" y="924.808"/>
      <point x="260" y="980" type="curve" smooth="yes"/>
      <point x="260" y="1035.19"/>
      <point x="304.808" y="1080"/>
      <point x="360" y="1080" type="curve" smooth="yes"/>
      <point x="415.192" y="1080"/>
      <point x="460" y="1035.19"/>
      <point x="460" y="980" type="curve" smooth="yes"/>
      <point x="460" y="924.808"/>
      <point x="415.192" y="880"/>
      <point x="360" y="880" type="curve" smooth="yes"/>
    </contour>
  </outline>
</glyph>
<glyph name="Icircumflex" format="2">
  <advance width="480"/>
  <unicode hex="00CE"/>
  <outline>
    <contour>
      <point x="240" y="40" type="move"/>
      <point x="240" y="760" type="line"/>
    </contour>
    <contour>
      <point x="120" y="960" type="move"/>
      <point x="240" y="1080" type="line"/>
      <point x="360" y="960" type="line"/>
    </contour>
  </outline>
</glyph>
<glyph name="Eth" format="2">
  <advance width="760"/>
  <unicode hex="00D0"/>
  <outline>
    <contour>
      <point x="240" y="40" type="line"/>
      <point x="240" y="760" type="line"/>
      <point x="480" y="760" type="line" smooth="yes"/>
      <point x="568.306" y="760"/>
      <point x="640" y="688.306"/>
      <point x="640" y="600" type="curve" smooth="yes"/>
      <point x="640" y="200" type="line" smooth="yes"/>
      <point x="640" y="111.694"/>
      <point x="568.306" y="40"/>
      <point x="480" y="40" type="curve" smooth="yes"/>
    </contour>
    <contour>
      <point x="120" y="400" type="move"/>
      <point x="360" y="400" type="line"/>
    </contour>
  </outline>
</glyph>
<glyph name="Oacute" format="2">
  <advance width="640"/>
  <unicode hex="00D3"/>
  <outline>
    <contour>
      <point x="120" y="560" type="line" smooth="yes"/>
      <point x="120" y="670.383"/>
      <point x="209.617" y="760"/>
      <point x="320" y="760" type="curve" smooth="yes"/>
      <point x="430.383" y="760"/>
      <point x="520" y="670.383"/>
      <point x="520" y="560" type="curve" smooth="yes"/>
      <point x="520" y="240" type="line" smooth="yes"/>
      <point x="520" y="129.617"/>
      <point x="430.383" y="40"/>
      <point x="320" y="40" type="curve" smooth="yes"/>
      <point x="209.617" y="40"/>
      <point x="120" y="129.617"/>
      <point x="120" y="240" type="curve" smooth="yes"/>
    </contour>
    <contour>
      <point x="240" y="960" type="move"/>
      <point x="400" y="1080" type="line"/>
    </contour>
  </outline>
</glyph>
<glyph name="Odieresis" format="2">
  <advance width="640"/>
  <unicode hex="00D6"/>
  <outline>
    <contour>
      <point x="120" y="560" type="line" smooth="yes"/>
      <point x="120" y="670.383"/>
      <point x="209.617" y="760"/>
      <point x="320" y="760" type="curve" smooth="yes"/>
      <point x="430.383" y="760"/>
      <point x="520" y="670.383"/>
      <point x="520" y="560" type="curve" smooth="yes"/>
      <point x="520" y="240" type="line" smooth="yes"/>
      <point x="520" y="129.617"/>
      <point x="430.383" y="40"/>
      <point x="320" y="40" type="curve" smooth="yes"/>
      <point x="209.617" y="40"/>
      <point x="120" y="129.617"/>
      <point x="120" y="240" type="curve" smooth="yes"/>
    </contour>
    <contour>
      <point x="200" y="1000" type="move"/>
      <point x="200" y="960" type="line"/>
    </contour>
    <contour>
      <point x="440" y="1000" type="move"/>
      <point x="440" y="960" type="line"/>
    </contour>
  </outline>
</glyph>
<glyph name="multiply" format="2">
  <advance width="560"/>
  <unicode hex="00D7"/>
  <outline>
    <contour>
      <point x="120" y="120" type="move"/>
      <point x="440" y="440" type="line"/>
    </contour>
    <contour>
      <point x="120" y="440" type="move"/>
      <point x="440" y="120" type="line"/>
    </contour>
  </outline>
</glyph>
<glyph name="Oslash" format="2">
  <advance width="800"/>
  <unicode hex="00D8"/>
  <outline>
    <contour>
      <point x="200" y="560" type="line" smooth="yes"/>
      <point x="200" y="670.383"/>
      <point x="289.617" y="760"/>
      <point x="400" y="760" type="curve" smooth="yes"/>
      <point x="510.383" y="760"/>
      <point x="600" y="670.383"/>
      <point x="600" y="560" type="curve" smooth="yes"/>
      <point x="600" y="240" type="line" smooth="yes"/>
      <point x="600" y="129.617"/>
      <point x="510.383" y="40"/>
      <point x="400" y="40" type="curve" smooth="yes"/>
      <point x="289.617" y="40"/>
      <point x="200" y="129.617"/>
      <point x="200" y="240" type="curve" smooth="yes"/>
    </contour>
    <contour>
      <point x="120" y="80" type="move"/>
      <point x="680" y="720" type="line"/>
    </contour>
  </outline>
</glyph>
<glyph name="Ugrave" format="2">
  <advance width="640"/>
  <unicode hex="00D9"/>
  <outline>
    <contour>
      <point x="120" y="760" type="move"/>
      <point x="120" y="240" type="line" smooth="yes"/>
      <point x="120" y="129.617"/>
      <point x="209.617" y="40"/>
      <point x="320" y="40" type="curve" smooth="yes"/>
      <point x="430.383" y="40"/>
      <point x="520" y="129.617"/>
      <point x="520" y="240" type="curve" smooth="yes"/>
      <point x="520" y="760" type="line"/>
    </contour>
    <contour>
      <point x="240" y="1080" type="move"/>
      <point x="400" y="960" type="line"/>
    </contour>
  </outline>
</glyph>
<glyph name="adieresis" format="2">
  <advance width="560"/>
  <unicode hex="00E4"/>
  <outline>
    <contour>
      <point x="160" y="520" type="move"/>
      <point x="320" y="520" type="line" smooth="yes"/>
      <point x="386.23" y="520"/>
      <point x="440" y="466.23"/>
      <point x="440" y="400" type="curve" smooth="yes"/>
      <point x="440" y="40" type="line"/>
      <point x="240" y="40" type="line" smooth="yes"/>
      <point x="173.77" y="40"/>
      <point x="120" y="93.7702"/>
      <point x="120" y="160" type="curve" smooth="yes"/>
      <point x="120" y="226.23"/>
      <point x="173.77" y="280"/>
      <point x="240" y="280" type="curve" smooth="yes"/>
      <point x="440" y="280" type="line"/>
    </contour>
    <contour>
      <point x="160" y="760" type="move"/>
      <point x="160" y="720" type="line"/>
    </contour>
    <contour>
      <point x="400" y="760" type="move"/>
      <point x="400" y="720" type="line"/>
    </contour>
  </outline>
</glyph>
<glyph name="egrave" format="2">
  <advance width="560"/>
  <unicode hex="00E8"/>
  <outline>
    <contour>
      <point x="440" y="40" type="move"/>
      <point x="240" y="40" type="line" smooth="yes"/>
      <point x="173.77" y="40"/>
      <point x="120" y="93.7702"/>
      <point x="120" y="160" type="curve" smooth="yes"/>
      <point x="120" y="360" type="line" smooth="yes"/>
      <point x="120" y="448.306"/>
      <point x="191.694" y="520"/>
      <point x="280" y="520" type="curve" smooth="yes"/>
      <point x="368.306" y="520"/>
      <point x="440" y="448.306"/>
      <point x="440" y="360" type="curve" smooth="yes"/>
      <point x="440" y="280" type="line"/>
      <point x="120" y="280" type="line"/>
    </contour>
    <contour>
      <point x="200" y="840" type="move"/>
      <point x="360" y="720" type="line"/>
    </contour>
  </outline>
</glyph>
<glyph name="igrave" format="2">
  <advance width="400"/>
  <unicode hex="00EC"/>
  <outline>
    <contour>
      <point x="200" y="40" type="move"/>
      <point x="200" y="520" type="line"/>
    </contour>
    <contour>
      <point x="120" y="840" type="move"/>
      <point x="280" y="720" type="line"/>
    </contour>
  </outline>
</glyph>
<glyph name="icircumflex" format="2">
  <advance width="480"/>
  <unicode hex="00EE"/>
  <outline>
    <contour>
      <point x="240" y="40" type="move"/>
      <point x="240" y="520" type="line"/>
    </contour>
    <contour>
      <point x="120" y="720" type="move"/>
      <point x="240" y="840" type="line"/>
      <point x="360" y="720" type="line"/>
    </contour>
  </outline>
</glyph>
<glyph name="eth" format="2">
  <advance width="720"/>
  <unicode hex="00F0"/>
  <outline>
    <contour>
      <point x="440" y="760" type="move"/>
      <point x="440" y="40" type="line"/>
      <point x="240" y="40" type="line" smooth="yes"/>
      <point x="173.77" y="40"/>
      <point x="120" y="93.7702"/>
      <point x="120" y="160" type="curve" smooth="yes"/>
      <point x="120" y="400" type="line" smooth="yes"/>
      <point x="120" y="466.23"/>
      <point x="173.77" y="520"/>
      <point x="240" y="520" type="curve" smooth="yes"/>
      <point x="440" y="520" type="line"/>
    </contour>
    <contour>
      <point x="440" y="960" type="move"/>
      <point x="440" y="760" type="line"/>
    </contour>
    <contour>
      <point x="280" y="760" type="move"/>
      <point x="600" y="760" type="line"/>
    </contour>
  </outline>
</glyph>
<glyph name="yacute" format="2">
  <advance width="560"/>
  <unicode hex="00FD"/>
  <outline>
    <contour>
      <point x="440" y="520" type="move"/>
      <point x="200" y="-200" type="line"/>
      <point x="120" y="-200" type="line"/>
    </contour>
    <contour>
      <point x="120" y="520" type="move"/>
      <point x="274.423" y="40" type="line"/>
    </contour>
    <contour>
      <point x="200" y="720" type="move"/>
      <point x="360" y="840" type="line"/>
    </contour>
  </outline>
</glyph>
<glyph name="thorn" format="2">
  <advance width="560"/>
  <unicode hex="00FE"/>
  <outline>
    <contour>
      <point x="120" y="-200" type="move"/>
      <point x="120" y="720" type="line"/>
    </contour>
    <contour>
      <point x="120" y="520" type="move"/>
      <point x="320" y="520" type="line" smooth="yes"/>
      <point x="386.23" y="520"/>
      <point x="440" y="466.23"/>
      <point x="440" y="400" type="curve" smooth="yes"/>
      <point x="440" y="160" type="line" smooth="yes"/>
      <point x="440" y="93.7702"/>
      <point x="386.23" y="40"/>
      <point x="320" y="40" type="curve" smooth="yes"/>
      <point x="120" y="40" type="line"/>
    </contour>
  </outline>
</glyph>
<glyph name="amacron" format="2">
  <advance width="640"/>
  <unicode hex="0101"/>
  <outline>
    <contour>
      <point x="200" y="520" type="move"/>
      <point x="360" y="520" type="line" smooth="yes"/>
      <point x="426.23" y="520"/>
      <point x="480" y="466.23"/>
      <point x="480" y="400" type="curve" smooth="yes"/>
      <point x="480" y="40" type="line"/>
      <point x="280" y="40" type="line" smooth="yes"/>
      <point x="213.77" y="40"/>
      <point x="160" y="93.7702"/>
      <point x="160" y="160" type="curve" smooth="yes"/>
      <point x="160" y="226.23"/>
      <point x="213.77" y="280"/>
      <point x="280" y="280" type="curve" smooth="yes"/>
      <point x="480" y="280" type="line"/>
    </contour>
    <contour>
      <point x="120" y="760" type="move"/>
      <point x="520" y="760" type="line"/>
    </contour>
  </outline>
</glyph>
<glyph name="Cdotaccent" format="2">
  <advance width="560"/>
  <unicode hex="010A"/>
  <outline>
    <contour>
      <point x="440" y="40" type="move"/>
      <point x="280" y="40" type="line" smooth="yes"/>
      <point x="191.694" y="40"/>
      <point x="120" y="111.694"/>
      <point x="120" y="200" type="curve" smooth="yes"/>
      <point x="120" y="600" type="line" smooth="yes"/>
      <point x="120" y="688.306"/>
      <point x="191.694" y="760"/>
      <point x="280" y="760" type="curve" smooth="yes"/>
      <point x="440" y="760" type="line"/>
    </contour>
    <contour>
      <point x="320" y="960" type="move" smooth="yes"/>
      <point x="297.923" y="960"/>
      <point x="280" y="977.923"/>
      <point x="280" y="1000" type="curve" smooth="yes"/>
      <point x="280" y="1022.08"/>
      <point x="297.923" y="1040"/>
      <point x="320" y="1040" type="curve" smooth="yes"/>
      <point x="342.077" y="1040"/>
      <point x="360" y="1022.08"/>
      <point x="360" y="1000" type="curve" smooth="yes"/>
      <point x="360" y="977.923"/>
      <point x="342.077" y="960"/>
      <point x="320" y="960" type="curve" smooth="yes"/>
    </contour>
  </outline>
</glyph>
<glyph name="Dcaron" format="2">
  <advance width="640"/>
  <unicode hex="010E"/>
  <outline>
    <contour>
      <point x="120" y="40" type="line"/>
      <point x="120" y="760" type="line"/>
      <point x="360" y="760" type="line" smooth="yes"/>
      <point x="448.306" y="760"/>
      <point x="520" y="688.306"/>
      <point x="520" y="600" type="curve" smooth="yes"/>
      <point x="520" y="200" type="line" smooth="yes"/>
      <point x="520" y="111.694"/>
      <point x="448.306" y="40"/>
      <point x="360" y="40" type="curve" smooth="yes"/>
    </contour>
    <contour>
      <point x="200" y="1080" type="move"/>
      <point x="320" y="960" type="line"/>
      <point x="440" y="1080" type="line"/>
    </contour>
  </outline>
</glyph>
<glyph name="Edotaccent" format="2">
  <advance width="560"/>
  <unicode hex="0116"/>
  <outline>
    <contour>
      <point x="440" y="40" type="move"/>
      <point x="120" y="40" type="line"/>
      <point x="120" y="760" type="line"/>
      <point x="440" y="760" type="line"/>
    </contour>
    <contour>
      <point x="120" y="440" type="move"/>
      <point x="360" y="440" type="line"/>
    </contour>
    <contour>
      <point x="280" y="960" type="move" smooth="yes"/>
      <point x="257.923" y="960"/>
      <point x="240" y="977.923"/>
      <point x="240" y="1000" type="curve" smooth="yes"/>
      <point x="240" y="1022.08"/>
      <point x="257.923" y="1040"/>
      <point x="280" y="1040" type="curve" smooth="yes"/>
      <point x="302.077" y="1040"/>
      <point x="320" y="1022.08"/>
      <point x="320" y="1000" type="curve" smooth="yes"/>
      <point x="320" y="977.923"/>
      <point x="302.077" y="960"/>
      <point x="280" y="960" type="curve" smooth="yes"/>
    </contour>
  </outline>
</glyph>
<glyph name="Ecaron" format="2">
  <advance width="560"/>
  <unicode hex="011A"/>
  <outline>
    <contour>
      <point x="440" y="40" type="move"/>
      <point x="120" y="40" type="line"/>
      <point x="120" y="760" type="line"/>
      <point x="440" y="760" type="line"/>
    </contour>
    <contour>
      <point x="120" y="440" type="move"/>
      <point x="360" y="440" type="line"/>
    </contour>
    <contour>
      <point x="160" y="1080" type="move"/>
      <point x="280" y="960" type="line"/>
      <point x="400" y="1080" type="line"/>
    </contour>
  </outline>
</glyph>
<glyph name="ecaron" format="2">
  <advance width="560"/>
  <unicode hex="011B"/>
  <outline>
    <contour>
      <point x="440" y="40" type="move"/>
      <point x="240" y="40" type="line" smooth="yes"/>
      <point x="173.77" y="40"/>
      <point x="120" y="93.7702"/>
      <point x="120" y="160" type="curve" smooth="yes"/>
      <point x="120" y="360" type="line" smooth="yes"/>
      <point x="120" y="448.306"/>
      <point x="191.694" y="520"/>
      <point x="280" y="520" type="curve" smooth="yes"/>
      <point x="368.306" y="520"/>
      <point x="440" y="448.306"/>
      <point x="440" y="360" type="curve" smooth="yes"/>
      <point x="440" y="280" type="line"/>
      <point x="120" y="280" type="line"/>
    </contour>
    <contour>
      <point x="160" y="840" type="move"/>
      <point x="280" y="720" type="line"/>
      <point x="400" y="840" type="line"/>
    </contour>
  </outline>
</glyph>
<glyph name="Hcircumflex" format="2">
  <advance width="640"/>
  <unicode hex="0124"/>
  <outline>
    <contour>
      <point x="120" y="40" type="move"/>
      <point x="120" y="760" type="line"/>
    </contour>
    <contour>
      <point x="520" y="40" type="move"/>
      <point x="520" y="760" type="line"/>
    </contour>
    <contour>
      <point x="120" y="440" type="move"/>
      <point x="520" y="440" type="line"/>
    </contour>
    <contour>
      <point x="200" y="960" type="move"/>
      <point x="320" y="1080" type="line"/>
      <point x="440" y="960" type="line"/>
    </contour>
  </outline>
</glyph>
<glyph name="Hbar" format="2">
  <advance width="880"/>
  <unicode hex="0126"/>
  <outline>
    <contour>
      <point x="240" y="40" type="move"/>
      <point x="240" y="960" type="line"/>
    </contour>
    <contour>
      <point x="640" y="40" type="move"/>
      <point x="640" y="960" type="line"/>
    </contour>
    <contour>
      <point x="240" y="440" type="move"/>
      <point x="640" y="440" type="line"/>
    </contour>
    <contour>
      <point x="120" y="760" type="move"/>
      <point x="760" y="760" type="line"/>
    </contour>
  </outline>
</glyph>
<glyph name="hbar" format="2">
  <advance width="680"/>
  <unicode hex="0127"/>
  <outline>
    <contour>
      <point x="240" y="40" type="move"/>
      <point x="240" y="760" type="line"/>
    </contour>
    <contour>
      <point x="240" y="520" type="move"/>
      <point x="440" y="520" type="line" smooth="yes"/>
      <point x="506.23" y="520"/>
      <point x="560" y="466.23"/>
      <point x="560" y="400" type="curve" smooth="yes"/>
      <point x="560" y="40" type="line"/>
    </contour>
    <contour>
      <point x="240" y="960" type="move"/>
      <point x="240" y="760" type="line"/>
    </contour>
    <contour>
      <point x="120" y="760" type="move"/>
      <point x="360" y="760" type="line"/>
    </contour>
  </outline>
</glyph>
<glyph name="imacron" format="2">
  <advance width="640"/>
  <unicode hex="012B"/>
  <outline>
    <contour>
      <point x="320" y="40" type="move"/>
      <point x="320" y="520" type="line"/>
    </contour>
    <contour>
      <point x="120" y="760" type="move"/>
      <point x="520" y="760" type="line"/>
    </contour>
  </outline>
</glyph>
<glyph name="iogonek" format="2">
  <advance width="320"/>
  <unicode hex="012F"/>
  <outline>
    <contour>
      <point x="200" y="40" type="move"/>
      <point x="200" y="520" type="line"/>
    </contour>
    <contour>
      <point x="200" y="720" type="move"/>
      <point x="200" y="760" type="line"/>
    </contour>
    <contour>
      <point x="200" y="40" type="move"/>
      <point x="120" y="-120" type="line"/>
    </contour>
  </outline>
</glyph>
<glyph name="Idotaccent" format="2">
  <advance width="320"/>
  <unicode hex="0130"/>
  <outline>
    <contour>
      <point x="160" y="40" type="move"/>
      <point x="160" y="760" type="line"/>
    </contour>
    <contour>
      <point x="160" y="960" type="move" smooth="yes"/>
      <point x="137.923" y="960"/>
      <point x="120" y="977.923"/>
      <point x="120" y="1000" type="curve" smooth="yes"/>
      <point x="120" y="1022.08"/>
      <point x="137.923" y="1040"/>
      <point x="160" y="1040" type="curve" smooth="yes"/>
      <point x="182.077" y="1040"/>
      <point x="200" y="1022.08"/>
      <point x="200" y="1000" type="curve" smooth="yes"/>
      <point x="200" y="977.923"/>
      <point x="182.077" y="960"/>
      <point x="160" y="960" type="curve" smooth="yes"/>
    </contour>
  </outline>
</glyph>
<glyph name="uni0136" format="2">
  <advance width="640"/>
  <unicode hex="0136"/>
  <outline>
    <contour>
      <point x="120" y="40" type="move"/>
      <point x="120" y="760" type="line"/>
    </contour>
    <contour>
      <point x="520" y="760" type="move"/>
      <point x="120" y="319.067" type="line"/>
    </contour>
    <contour>
      <point x="520" y="40" type="move"/>
      <point x="280" y="469.584" type="line"/>
    </contour>
    <contour>
      <point x="320" y="40" type="move"/>
      <point x="280" y="-120" type="line"/>
    </contour>
  </outline>
</glyph>
<glyph name="uni0137" format="2">
  <advance width="600"/>
  <unicode hex="0137"/>
  <outline>
    <contour>
      <point x="160" y="760" type="move"/>
      <point x="160" y="40" type="line"/>
    </contour>
    <contour>
      <point x="160" y="280" type="move"/>
      <point x="480" y="520" type="line"/>
    </contour>
    <contour>
      <point x="480" y="40" type="move"/>
      <point x="312" y="359.2" type="line"/>
    </contour>
    <contour>
      <point x="160" y="40" type="move"/>
      <point x="120" y="-120" type="line"/>
    </contour>
  </outline>
</glyph>
<glyph name="uni013B" format="2">
  <advance width="560"/>
  <unicode hex="013B"/>
  <outline>
    <contour>
      <point x="120" y="760" type="move"/>
      <point x="120" y="40" type="line"/>
      <point x="440" y="40" type="line"/>
    </contour>
    <contour>
      <point x="280" y="40" type="move"/>
      <point x="240" y="-120" type="line"/>
    </contour>
  </outline>
</glyph>
<glyph name="lcaron" format="2">
  <advance width="480"/>
  <unicode hex="013E"/>
  <outline>
    <contour>
      <point x="240" y="760" type="move"/>
      <point x="240" y="120" type="line" smooth="yes"/>
      <point x="240" y="75.8468"/>
      <point x="275.847" y="40"/>
      <point x="320" y="40" type="curve" smooth="yes"/>
    </contour>
    <contour>
      <point x="120" y="1080" type="move"/>
      <point x="240" y="960" type="line"/>
      <point x="360" y="1080" type="line"/>
    </contour>
  </outline>
</glyph>
<glyph name="nacute" format="2">
  <advance width="560"/>
  <unicode hex="0144"/>
  <outline>
    <contour>
      <point x="120" y="40" type="move"/>
      <point x="120" y="520" type="line"/>
      <point x="320" y="520" type="line" smooth="yes"/>
      <point x="386.23" y="520"/>
      <point x="440" y="466.23"/>
      <point x="440" y="400" type="curve" smooth="yes"/>
      <point x="440" y="40" type="line"/>
    </contour>
    <contour>
      <point x="200" y="720" type="move"/>
      <point x="360" y="840" type="line"/>
    </contour>
  </outline>
</glyph>
<glyph name="uni0146" format="2">
  <advance width="600"/>
  <unicode hex="0146"/>
  <outline>
    <contour>
      <point x="160" y="40" type="move"/>
      <point x="160" y="520" type="line"/>
      <point x="360" y="520" type="line" smooth="yes"/>
      <point x="426.23" y="520"/>
      <point x="480" y="466.23"/>
      <point x="480" y="400" type="curve" smooth="yes"/>
      <point x="480" y="40" type="line"/>
    </contour>
    <contour>
      <point x="160" y="40" type="move"/>
      <point x="120" y="-120" type="line"/>
    </contour>
  </outline>
</glyph>
<glyph name="ncaron" format="2">
  <advance width="560"/>
  <unicode hex="0148"/>
  <outline>
    <contour>
      <point x="120" y="40" type="move"/>
      <point x="120" y="520" type="line"/>
      <point x="320" y="520" type="line" smooth="yes"/>
      <point x="386.23" y="520"/>
      <point x="440" y="466.23"/>
      <point x="440" y="400" type="curve" smooth="yes"/>
      <point x="440" y="40" type="line"/>
    </contour>
    <contour>
      <point x="160" y="840" type="move"/>
      <point x="280" y="720" type="line"/>
      <point x="400" y="840" type="line"/>
    </contour>
  </outline>
</glyph>
<glyph name="eng" format="2">
  <advance width="560"/>
  <unicode hex="014B"/>
  <outline>
    <contour>
      <point x="120" y="40" type="move"/>
      <point x="120" y="520" type="line"/>
      <point x="320" y="520" type="line" smooth="yes"/>
      <point x="386.23" y="520"/>
      <point x="440" y="466.23"/>
      <point x="440" y="400" type="curve" smooth="yes"/>
      <point x="440" y="-200" type="line"/>
      <point x="400" y="-200" type="line" smooth="yes"/>
      <point x="333.77" y="-200"/>
      <point x="280" y="-146.23"/>
      <point x="280" y="-80" type="curve" smooth="yes"/>
    </contour>
  </outline>
</glyph>
<glyph name="oe" format="2">
  <advance width="880"/>
  <unicode hex="0153"/>
  <outline>
    <contour>
      <point x="440" y="200" type="line" smooth="yes"/>
      <point x="440" y="111.694"/>
      <point x="368.306" y="40"/>
      <point x="280" y="40" type="curve" smooth="yes"/>
      <point x="191.694" y="40"/>
      <point x="120" y="111.694"/>
      <point x="120" y="200" type="curve" smooth="yes"/>
      <point x="120" y="360" type="line" smooth="yes"/>
      <point x="120" y="448.306"/>
      <point x="191.694" y="520"/>
      <point x="280" y="520" type="curve" smooth="yes"/>
      <point x="368.306" y="520"/>
      <point x="440" y="448.306"/>
      <point x="440" y="360" type="curve" smooth="yes"/>
    </contour>
    <contour>
      <point x="440" y="280" type="move"/>
      <point x="760" y="280" type="line"/>
      <point x="760" y="360" type="line" smooth="yes"/>
      <point x="760" y="448.306"/>
      <point x="688.306" y="520"/>
      <point x="600" y="520" type="curve" smooth="yes"/>
      <point x="511.694" y="520"/>
      <point x="440" y="448.306"/>
      <point x="440" y="360" type="curve" smooth="yes"/>
      <point x="440" y="160" type="line" smooth="yes"/>
      <point x="440" y="93.7702"/>
      <point x="493.77" y="40"/>
      <point x="560" y="40" type="curve" smooth="yes"/>
      <point x="760" y="40" type="line"/>
    </contour>
  </outline>
</glyph>
<glyph name="uni0163" format="2">
  <advance width="480"/>
  <unicode hex="0163"/>
  <outline>
    <contour>
      <point x="200" y="40" type="move"/>
      <point x="200" y="760" type="line"/>
    </contour>
    <contour>
      <point x="120" y="520" type="move"/>
      <point x="360" y="520" type="line"/>
    </contour>
    <contour>
      <point x="200" y="40" type="move"/>
      <point x="200" y="0" type="line"/>
      <point x="160" y="-120" type="line"/>
    </contour>
  </outline>
</glyph>
<glyph name="tcaron" format="2">
  <advance width="520"/>
  <unicode hex="0165"/>
  <outline>
    <contour>
      <point x="240" y="40" type="move"/>
      <point x="240" y="760" type="line"/>
    </contour>
    <contour>
      <point x="160" y="520" type="move"/>
      <point x="400" y="520" type="line"/>
    </contour>
    <contour>
      <point x="120" y="1080" type="move"/>
      <point x="240" y="960" type="line"/>
      <point x="360" y="1080" type="line"/>
    </contour>
  </outline>
</glyph>
<glyph name="utilde" format="2">
  <advance width="560"/>
  <unicode hex="0169"/>
  <outline>
    <contour>
      <point x="120" y="520" type="move"/>
      <point x="120" y="160" type="line" smooth="yes"/>
      <point x="120" y="93.7702"/>
      <point x="173.77" y="40"/>
      <point x="240" y="40" type="curve" smooth="yes"/>
      <point x="440" y="40" type="line"/>
      <point x="440" y="520" type="line"/>
    </contour>
    <contour>
      <point x="160" y="720" type="move"/>
      <point x="280" y="840" type="line"/>
      <point x="400" y="720" type="line"/>
    </contour>
  </outline>
</glyph>
<glyph name="Uring" format="2">
  <advance width="640"/>
  <unicode hex="016E"/>
  <outline>
    <contour>
      <point x="120" y="760" type="move"/>
      <point x="120" y="240" type="line" smooth="yes"/>
      <point x="120" y="129.617"/>
      <point x="209.617" y="40"/>
      <point x="320" y="40" type="curve" smooth="yes"/>
      <point x="430.383" y="40"/>
      <point x="520" y="129.617"/>
      <point x="520" y="240" type="curve" smooth="yes"/>
      <point x="520" y="760" type="line"/>
    </contour>
    <contour>
      <point x="320" y="880" type="move" smooth="yes"/>
      <point x="264.808" y="880"/>
      <point x="220" y="924.808"/>
      <point x="220" y="980" type="curve" smooth="yes"/>
      <point x="220" y="1035.19"/>
      <point x="264.808" y="1080"/>
      <point x="320" y="1080" type="curve" smooth="yes"/>
      <point x="375.192" y="1080"/>
      <point x="420" y="1035.19"/>
      <point x="420" y="980" type="curve" smooth="yes"/>
      <point x="420" y="924.808"/>
      <point x="375.192" y="880"/>
      <point x="320" y="880" type="curve" smooth="yes"/>
    </contour>
  </outline>
</glyph>
<glyph name="uring" format="2">
  <advance width="560"/>
  <unicode hex="016F"/>
  <outline>
    <contour>
      <point x="120" y="520" type="move"/>
      <point x="120" y="160" type="line" smooth="yes"/>
      <point x="120" y="93.7702"/>
      <point x="173.77" y="40"/>
      <point x="240" y="40" type="curve" smooth="yes"/>
      <point x="440" y="40" type="line"/>
      <point x="440" y="520" type="line"/>
    </contour>
    <contour>
      <point x="160" y="760" type="move"/>
      <point x="160" y="720" type="line"/>
    </contour>
    <contour>
      <point x="400" y="760" type="move"/>
      <point x="400" y="720" type="line"/>
    </contour>
  </outline>
</glyph>
<glyph name="uhungarumlaut" format="2">
  <advance width="720"/>
  <unicode hex="0171"/>
  <outline>
    <contour>
      <point x="200" y="520" type="move"/>
      <point x="200" y="160" type="line" smooth="yes"/>
      <point x="200" y="93.7702"/>
      <point x="253.77" y="40"/>
      <point x="320" y="40" type="curve" smooth="yes"/>
      <point x="520" y="40" type="line"/>
      <point x="520" y="520" type="line"/>
    </contour>
    <contour>
      <point x="120" y="720" type="move"/>
      <point x="280" y="840" type="line"/>
    </contour>
    <contour>
      <point x="440" y="720" type="move"/>
      <point x="600" y="840" type="line"/>
    </contour>
  </outline>
</glyph>
<glyph name="uogonek" format="2">
  <advance width="560"/>
  <unicode hex="0173"/>
  <outline>
    <contour>
      <point x="120" y="520" type="move"/>
      <point x="120" y="160" type="line" smooth="yes"/>
      <point x="120" y="93.7702"/>
      <point x="173.77" y="40"/>
      <point x="240" y="40" type="curve" smooth="yes"/>
      <point x="440" y="40" type="line"/>
      <point x="440" y="520" type="line"/>
    </contour>
    <contour>
      <point x="240" y="40" type="move"/>
      <point x="200" y="-120" type="line"/>
    </contour>
  </outline>
</glyph>
<glyph name="uni01CF" format="2">
  <advance width="480"/>
  <unicode hex="01CF"/>
  <outline>
    <contour>
      <point x="240" y="40" type="move"/>
      <point x="240" y="760" type="line"/>
    </contour>
    <contour>
      <point x="120" y="1080" type="move"/>
      <point x="240" y="960" type="line"/>
      <point x="360" y="1080" type="line"/>
    </contour>
  </outline>
</glyph>
<glyph name="Alpha" format="2">
  <advance width="720"/>
  <unicode hex="0391"/>
  <outline>
    <contour>
      <point x="120" y="40" type="move"/>
      <point x="360" y="760" type="line"/>
      <point x="600" y="40" type="line"/>
    </contour>
    <contour>
      <point x="200" y="240" type="move"/>
      <point x="520" y="240" type="line"/>
    </contour>
  </outline>
</glyph>
<glyph name="Beta" format="2">
  <advance width="640"/>
  <unicode hex="0392"/>
  <outline>
    <contour>
      <point x="120" y="40" type="move"/>
      <point x="120" y="760" type="line"/>
      <point x="300" y="760" type="line" smooth="yes"/>
      <point x="399.345" y="760"/>
      <point x="480" y="679.345"/>
      <point x="480" y="580" type="curve" smooth="yes"/>
      <point x="480" y="480.655"/>
      <point x="399.345" y="400"/>
      <point x="300" y="400" type="curve" smooth="yes"/>
      <point x="120" y="400" type="line"/>
      <point x="340" y="400" type="line" smooth="yes"/>
      <point x="439.345" y="400"/>
      <point x="520" y="319.345"/>
      <point x="520" y="220" type="curve" smooth="yes"/>
      <point x="520" y="120.655"/>
      <point x="439.345" y="40"/>
      <point x="340" y="40" type="curve" smooth="yes"/>
      <point x="120" y="40" type="line"/>
    </contour>
  </outline>
</glyph>
<glyph name="uni0394" format="2">
  <advance width="720"/>
  <unicode hex="0394"/>
  <outline>
    <contour>
      <point x="120" y="40" type="move"/>
      <point x="360" y="760" type="line"/>
      <point x="600" y="40" type="line"/>
      <point x="120" y="40" type="line"/>
    </contour>
  </outline>
</glyph>
<glyph name="Zeta" format="2">
  <advance width="640"/>
  <unicode hex="0396"/>
  <outline>
    <contour>
      <point x="120" y="760" type="move"/>
      <point x="520" y="760" type="line"/>
      <point x="120" y="40" type="line"/>
      <point x="520" y="40" type="line"/>
    </contour>
  </outline>
</glyph>
<glyph name="Nu" format="2">
  <advance width="640"/>
  <unicode hex="039D"/>
  <outline>
    <contour>
      <point x="120" y="40" type="move"/>
      <point x="120" y="760" type="line"/>
      <point x="520" y="40" type="line"/>
      <point x="520" y="760" type="line"/>
    </contour>
  </outline>
</glyph>
<glyph name="Xi" format="2">
  <advance width="640"/>
  <unicode hex="039E"/>
  <outline>
    <contour>
      <point x="120" y="40" type="move"/>
      <point x="520" y="40" type="line"/>
    </contour>
    <contour>
      <point x="240" y="400" type="move"/>
      <point x="400" y="400" type="line"/>
    </contour>
    <contour>
      <point x="120" y="760" type="move"/>
      <point x="520" y="760" type="line"/>
    </contour>
  </outline>
</glyph>
<glyph name="Upsilon" format="2">
  <advance width="640"/>
  <unicode hex="03A5"/>
  <outline>
    <contour>
      <point x="120" y="760" type="move"/>
      <point x="320" y="397.133" type="line"/>
      <point x="520" y="760" type="line"/>
    </contour>
    <contour>
      <point x="320" y="40" type="move"/>
      <point x="320" y="400" type="line"/>
    </contour>
  </outline>
</glyph>
<glyph name="uni03A9" format="2">
  <advance width="720"/>
  <unicode hex="03A9"/>
  <outline>
    <contour>
      <point x="120" y="40" type="move"/>
      <point x="240" y="40" type="line"/>
      <point x="240" y="232.154" type="line"/>
      <point x="168.144" y="273.64"/>
      <point x="120" y="351.136"/>
      <point x="120" y="440" type="curve" smooth="yes"/>
      <point x="119.743" y="440.153"/>
      <point x="120" y="520"/>
      <point x="120" y="520" type="curve" smooth="yes"/>
      <point x="120" y="652.46"/>
      <point x="227.54" y="760"/>
      <point x="360" y="760" type="curve" smooth="yes"/>
      <point x="492.46" y="760"/>
      <point x="600" y="652.46"/>
      <point x="600" y="520" type="curve" smooth="yes"/>
      <point x="600" y="440" type="line" smooth="yes"/>
      <point x="600" y="351.136"/>
      <point x="551.856" y="273.64"/>
      <point x="480" y="232.154" type="curve" smooth="yes"/>
      <point x="479.743" y="232.001"/>
      <point x="480" y="40"/>
      <point x="480" y="40" type="curve"/>
      <point x="600" y="40" type="line"/>
    </contour>
  </outline>
</glyph>
<glyph name="alpha" format="2">
  <advance width="680"/>
  <unicode hex="03B1"/>
  <outline>
    <contour>
      <point x="520" y="520" type="move"/>
      <point x="350.769" y="113.846" type="line" smooth="yes"/>
      <point x="332.689" y="70.4548"/>
      <point x="289.856" y="39.9199"/>
      <point x="239.947" y="39.9199" type="curve" smooth="yes"/>
      <point x="173.717" y="39.9199"/>
      <point x="120" y="93.7702"/>
      <point x="120" y="160" type="curve"/>
      <point x="119.947" y="159.92"/>
      <point x="120" y="400"/>
      <point x="120" y="400" type="curve" smooth="yes"/>
      <point x="120" y="466.23"/>
      <point x="173.77" y="520"/>
      <point x="240" y="520" type="curve" smooth="yes"/>
      <point x="291.279" y="520"/>
      <point x="335.045" y="487.821"/>
      <point x="352.211" y="442.527" type="curve" smooth="yes"/>
      <point x="352.255" y="442.472"/>
      <point x="485.192" y="91.6484"/>
      <point x="485.192" y="91.6484" type="curve" smooth="yes"/>
      <point x="496.636" y="61.4525"/>
      <point x="525.814" y="40"/>
      <point x="560" y="40" type="curve" smooth="yes"/>
    </contour>
  </outline>
</glyph>
<glyph name="beta" format="2">
  <advance width="640"/>
  <unicode hex="03B2"/>
  <outline>
    <contour>
      <point x="120" y="-200" type="move"/>
      <point x="120" y="600" type="line" smooth="yes"/>
      <point x="120" y="688.306"/>
      <point x="191.694" y="760"/>
      <point x="280" y="760" type="curve" smooth="yes"/>
      <point x="360" y="760" type="line" smooth="yes"/>
      <point x="426.23" y="760"/>
      <point x="480" y="706.23"/>
      <point x="480" y="640" type="curve" smooth="yes"/>
      <point x="480" y="560" type="line" smooth="yes"/>
      <point x="480" y="493.77"/>
      <point x="426.23" y="440"/>
      <point x="360" y="440" type="curve"/>
      <point x="448.306" y="440"/>
      <point x="520" y="368.306"/>
      <point x="520" y="280" type="curve" smooth="yes"/>
      <point x="520" y="200" type="line" smooth="yes"/>
      <point x="520" y="111.694"/>
      <point x="448.306" y="40"/>
      <point x="360" y="40" type="curve" smooth="yes"/>
    </contour>
  </outline>
</glyph>
<glyph name="gamma" format="2">
  <advance width="640"/>
  <unicode hex="03B3"/>
  <outline>
    <contour>
      <point x="120" y="520" type="move" smooth="yes"/>
      <point x="334.545" y="405.576"/>
      <point x="480" y="179.931"/>
      <point x="480" y="-80" type="curve" smooth="yes"/>
      <point x="480" y="-146.23"/>
      <point x="426.23" y="-200"/>
      <point x="360" y="-200" type="curve" smooth="yes"/>
      <point x="293.77" y="-200"/>
      <point x="240" y="-146.23"/>
      <point x="240" y="-80" type="curve" smooth="yes"/>
      <point x="240" y="160.92"/>
      <point x="348.594" y="376.346"/>
      <point x="520" y="520" type="curve" smooth="yes"/>
    </contour>
  </outline>
</glyph>
<glyph name="delta" format="2">
  <advance width="560"/>
  <unicode hex="03B4"/>
  <outline>
    <contour>
      <point x="440" y="360" type="move" smooth="yes"/>
      <point x="440" y="448.306"/>
      <point x="368.306" y="520"/>
      <point x="280" y="520" type="curve" smooth="yes"/>
      <point x="191.694" y="520"/>
      <point x="120" y="448.306"/>
      <point x="120" y="360" type="curve" smooth="yes"/>
      <point x="120" y="200" type="line" smooth="yes"/>
      <point x="120" y="111.694"/>
      <point x="191.694" y="40"/>
      <point x="280" y="40" type="curve" smooth="yes"/>
      <point x="368.306" y="40"/>
      <point x="440" y="111.694"/>
      <point x="440" y="200" type="curve" smooth="yes"/>
      <point x="440" y="360" type="line" smooth="yes"/>
      <point x="440" y="414.457"/>
      <point x="412.889" y="462.506"/>
      <point x="371.277" y="491.41" type="curve" smooth="yes"/>
      <point x="371.123" y="491.5"/>
      <point x="194.361" y="614.295"/>
      <point x="194.361" y="614.295" type="curve" smooth="yes"/>
      <point x="173.555" y="628.747"/>
      <point x="159.923" y="652.817"/>
      <point x="159.923" y="680.045" type="curve" smooth="yes"/>
      <point x="159.923" y="724.198"/>
      <point x="195.847" y="760"/>
      <point x="240" y="760" type="curve"/>
      <point x="239.923" y="760.045"/>
      <point x="400" y="760"/>
      <point x="400" y="760" type="curve" smooth="yes"/>
    </contour>
  </outline>
</glyph>
<glyph name="epsilon" format="2">
  <advance width="560"/>
  <unicode hex="03B5"/>
  <outline>
    <contour>
      <point x="440" y="80" type="move" smooth="yes"/>
      <point x="378.513" y="54.3806"/>
      <point x="310.722" y="40"/>
      <point x="240" y="40" type="curve" smooth="yes"/>
      <point x="173.77" y="40"/>
      <point x="120" y="93.7702"/>
      <point x="120" y="160" type="curve" smooth="yes"/>
      <point x="120" y="226.23"/>
      <point x="173.77" y="280"/>
      <point x="240" y="280" type="curve" smooth="yes"/>
      <point x="280" y="280" type="line"/>
      <point x="240" y="280" type="line" smooth="yes"/>
      <point x="173.77" y="280"/>
      <point x="120" y="333.77"/>
      <point x="120" y="400" type="curve" smooth="yes"/>
      <point x="120" y="466.23"/>
      <point x="173.77" y="520"/>
      <point x="240" y="520" type="curve" smooth="yes"/>
      <point x="310.722" y="520"/>
      <point x="378.513" y="505.619"/>
      <point x="440" y="480" type="curve" smooth="yes"/>
    </contour>
  </outline>
</glyph>
<glyph name="zeta" format="2">
  <advance width="560"/>
  <unicode hex="03B6"/>
  <outline>
    <contour>
      <point x="360" y="-200" type="move" smooth="yes"/>
      <point x="404.153" y="-200"/>
      <point x="440" y="-164.153"/>
      <point x="440" y="-120" type="curve" smooth="yes"/>
      <point x="440" y="-40" type="line" smooth="yes"/>
      <point x="440" y="4.1532"/>
      <point x="404.153" y="40"/>
      <point x="360" y="40" type="curve" smooth="yes"/>
      <point x="240" y="40" type="line" smooth="yes"/>
      <point x="173.77" y="40"/>
      <point x="120" y="93.7702"/>
      <point x="120" y="160" type="curve" smooth="yes"/>
      <point x="120" y="175.253"/>
      <point x="122.898" y="189.907"/>
      <point x="128.098" y="203.334" type="curve" smooth="yes"/>
      <point x="191.138" y="366.124"/>
      <point x="283.753" y="513.805"/>
      <point x="400" y="640" type="curve" smooth="yes"/>
      <point x="400.429" y="640.212"/>
      <point x="200" y="640"/>
      <point x="200" y="640" type="curve" smooth="yes"/>
      <point x="155.847" y="640"/>
      <point x="120" y="675.847"/>
      <point x="120" y="720" type="curve" smooth="yes"/>
      <point x="120" y="760" type="line"/>
    </contour>
  </outline>
</glyph>
<glyph name="theta" format="2">
  <advance width="760"/>
  <unicode hex="03B8"/>
  <outline>
    <contour>
      <point x="120" y="280" type="move"/>
      <point x="160" y="280" type="line" smooth="yes"/>
      <point x="204.153" y="280"/>
      <point x="240" y="244.153"/>
      <point x="240" y="200" type="curve" smooth="yes"/>
      <point x="240" y="111.694"/>
      <point x="311.694" y="40"/>
      <point x="400" y="40" type="curve" smooth="yes"/>
      <point x="488.306" y="40"/>
      <point x="560" y="111.694"/>
      <point x="560" y="200" type="curve" smooth="yes"/>
      <point x="560" y="620" type="line" smooth="yes"/>
      <point x="560" y="697.268"/>
      <point x="497.268" y="760"/>
      <point x="420" y="760" type="curve" smooth="yes"/>
      <point x="342.732" y="760"/>
      <point x="280" y="697.268"/>
      <point x="280" y="620" type="curve" smooth="yes"/>
      <point x="280" y="542.732"/>
      <point x="342.732" y="480"/>
      <point x="420" y="480" type="curve" smooth="yes"/>
      <point x="640" y="480" type="line"/>
    </contour>
  </outline>
</glyph>
<glyph name="iota" format="2">
  <advance width="513"/>
  <unicode hex="03B9"/>
  <outline>
    <contour>
      <point x="120" y="520" type="move"/>
      <point x="120" y="200" type="line" smooth="yes"/>
      <point x="120" y="111.694"/>
      <point x="191.694" y="40"/>
      <point x="280" y="40" type="curve" smooth="yes"/>
      <point x="324.153" y="40"/>
      <point x="364.175" y="57.9012"/>
      <point x="393.137" y="86.8629" type="curve" smooth="yes"/>
    </contour>
  </outline>
</glyph>
<glyph name="kappa" format="2">
  <advance width="640"/>
  <unicode hex="03BA"/>
  <outline>
    <contour>
      <point x="120" y="520" type="move" smooth="yes"/>
      <point x="164.153" y="520"/>
      <point x="200" y="484.153"/>
      <point x="200" y="440" type="curve" smooth="yes"/>
      <point x="200" y="40" type="line"/>
    </contour>
    <contour>
      <point x="480" y="520" type="move"/>
      <point x="200" y="174.163" type="line"/>
    </contour>
    <contour>
      <point x="520" y="40" type="move" smooth="yes"/>
      <point x="491.235" y="40"/>
      <point x="466.046" y="55.129"/>
      <point x="451.947" y="77.9423" type="curve" smooth="yes"/>
      <point x="451.897" y="78.0274"/>
      <point x="311.947" y="304.473"/>
      <point x="311.947" y="304.473" type="curve" smooth="yes"/>
    </contour>
  </outline>
</glyph>
<glyph name="lambda" format="2">
  <advance width="640"/>
  <unicode hex="03BB"/>
  <outline>
    <contour>
      <point x="160" y="760" type="move" smooth="yes"/>
      <point x="195.127" y="760"/>
      <point x="224.975" y="737.329"/>
      <point x="235.719" y="705.819" type="curve" smooth="yes"/>
      <point x="235.741" y="705.802"/>
      <point x="444.281" y="94.1807"/>
      <point x="444.281" y="94.1807" type="curve" smooth="yes"/>
      <point x="455.025" y="62.6711"/>
      <point x="484.873" y="40"/>
      <point x="520" y="40" type="curve" smooth="yes"/>
    </contour>
    <contour>
      <point x="120" y="40" type="move"/>
      <point x="300" y="480" type="line"/>
    </contour>
  </outline>
</glyph>
<glyph name="uni03BC" format="2">
  <advance width="640"/>
  <unicode hex="03BC"/>
  <outline>
    <contour>
      <point x="120" y="-200" type="move"/>
      <point x="120" y="520" type="line"/>
    </contour>
    <contour>
      <point x="120" y="200" type="move" smooth="yes"/>
      <point x="120" y="111.694"/>
      <point x="191.694" y="40"/>
      <point x="280" y="40" type="curve" smooth="yes"/>
      <point x="368.306" y="40"/>
      <point x="440" y="111.694"/>
      <point x="440" y="200" type="curve" smooth="yes"/>
    </contour>
    <contour>
      <point x="440" y="520" type="move"/>
      <point x="440" y="120" type="line" smooth="yes"/>
      <point x="440" y="75.8468"/>
      <point x="475.847" y="40"/>
      <point x="520" y="40" type="curve" smooth="yes"/>
    </contour>
  </outline>
</glyph>
<glyph name="nu" format="2">
  <advance width="640"/>
  <unicode hex="03BD"/>
  <outline>
    <contour>
      <point x="120" y="520" type="move" smooth="yes"/>
      <point x="158.863" y="520"/>
      <point x="191.291" y="492.165"/>
      <point x="198.503" y="455.401" type="curve"/>
      <point x="198.504" y="455.465"/>
      <point x="280" y="40"/>
      <point x="280" y="40" type="curve"/>
      <point x="407.15" y="166.292"/>
      <point x="494.058" y="333.905"/>
      <point x="520" y="520" type="curve" smooth="yes"/>
    </contour>
  </outline>
</glyph>
<glyph name="sigma" format="2">
  <advance width="680"/>
  <unicode hex="03C3"/>
  <outline>
    <contour>
      <point x="120" y="360" type="line" smooth="yes"/>
      <point x="120" y="448.306"/>
      <point x="191.694" y="520"/>
      <point x="280" y="520" type="curve" smooth="yes"/>
      <point x="368.306" y="520"/>
      <point x="440" y="448.306"/>
      <point x="440" y="360" type="curve" smooth="yes"/>
      <point x="440" y="200" type="line" smooth="yes"/>
      <point x="440" y="111.694"/>
      <point x="368.306" y="40"/>
      <point x="280" y="40" type="curve" smooth="yes"/>
      <point x="191.694" y="40"/>
      <point x="120" y="111.694"/>
      <point x="120" y="200" type="curve" smooth="yes"/>
    </contour>
    <contour>
      <point x="280" y="520" type="move"/>
      <point x="480" y="520" type="line" smooth="yes"/>
      <point x="524.153" y="520"/>
      <point x="560" y="555.847"/>
      <point x="560" y="600" type="curve" smooth="yes"/>
    </contour>
  </outline>
</glyph>
<glyph name="upsilon" format="2">
  <advance width="720"/>
  <unicode hex="03C5"/>
  <outline>
    <contour>
      <point x="120" y="520" type="move" smooth="yes"/>
      <point x="164.153" y="520"/>
      <point x="200" y="484.153"/>
      <point x="200" y="440" type="curve" smooth="yes"/>
      <point x="200" y="200" type="line" smooth="yes"/>
      <point x="200" y="111.694"/>
      <point x="271.694" y="40"/>
      <point x="360" y="40" type="curve" smooth="yes"/>
      <point x="440" y="40" type="line" smooth="yes"/>
      <point x="528.306" y="40"/>
      <point x="600" y="111.694"/>
      <point x="600" y="200" type="curve" smooth="yes"/>
      <point x="600" y="520" type="line"/>
    </contour>
  </outline>
</glyph>
<glyph name="chi" format="2">
  <advance width="640"/>
  <unicode hex="03C7"/>
  <outline>
    <contour>
      <point x="160" y="-200" type="move"/>
      <point x="480" y="520" type="line"/>
    </contour>
    <contour>
      <point x="120" y="520" type="move" smooth="yes"/>
      <point x="153.531" y="520"/>
      <point x="182.238" y="499.375"/>
      <point x="194.126" y="470.09" type="curve" smooth="yes"/>
      <point x="194.159" y="470.041"/>
      <point x="445.874" y="-150.09"/>
      <point x="445.874" y="-150.09" type="curve" smooth="yes"/>
      <point x="457.762" y="-179.375"/>
      <point x="486.469" y="-200"/>
      <point x="520" y="-200" type="curve" smooth="yes"/>
    </contour>
  </outline>
</glyph>
<glyph name="psi" format="2">
  <advance width="720"/>
  <unicode hex="03C8"/>
  <outline>
    <contour>
      <point x="120" y="520" type="move"/>
      <point x="120" y="280" type="line" smooth="yes"/>
      <point x="120" y="147.54"/>
      <point x="227.54" y="40"/>
      <point x="360" y="40" type="curve" smooth="yes"/>
      <point x="492.46" y="40"/>
      <point x="600" y="147.54"/>
      <point x="600" y="280" type="curve" smooth="yes"/>
      <point x="600" y="520" type="line"/>
    </contour>
    <contour>
      <point x="360" y="680" type="move"/>
      <point x="360" y="-200" type="line"/>
    </contour>
  </outline>
</glyph>
<glyph name="omega" format="2">
  <advance width="800"/>
  <unicode hex="03C9"/>
  <outline>
    <contour>
      <point x="180" y="520" type="move" smooth="yes"/>
      <point x="141.478" y="420.886"/>
      <point x="120" y="312.663"/>
      <point x="120" y="200" type="curve" smooth="yes"/>
      <point x="120" y="111.694"/>
      <point x="191.694" y="40"/>
      <point x="280" y="40" type="curve" smooth="yes"/>
      <point x="346.23" y="40"/>
      <point x="400" y="93.7702"/>
      <point x="400" y="160" type="curve" smooth="yes"/>
      <point x="400" y="280" type="line"/>
      <point x="400" y="160" type="line" smooth="yes"/>
      <point x="400" y="93.7702"/>
      <point x="453.77" y="40"/>
      <point x="520" y="40" type="curve" smooth="yes"/>
      <point x="608.306" y="40"/>
      <point x="680" y="111.694"/>
      <point x="680" y="200" type="curve" smooth="yes"/>
      <point x="680" y="312.663"/>
      <point x="658.522" y="420.886"/>
      <point x="620" y="520" type="curve" smooth="yes"/>
    </contour>
  </outline>
</glyph>
<glyph name="summation" format="2">
  <advance width="760"/>
  <unicode hex="2211"/>
  <outline>
    <contour>
      <point x="640" y="120" type="move" smooth="yes"/>
      <point x="623.522" y="73.3925"/>
      <point x="579.084" y="40"/>
      <point x="526.863" y="40" type="curve" smooth="yes"/>
      <point x="526.826" y="39.9636"/>
      <point x="120" y="40"/>
      <point x="120" y="40" type="curve"/>
      <point x="360" y="400" type="line"/>
      <point x="120" y="760" type="line"/>
      <point x="520" y="760" type="line"/>
    </contour>
  </outline>
</glyph>
<glyph name="infinity" format="2">
  <advance width="800"/>
  <unicode hex="221E"/>
  <outline>
    <contour>
      <point x="400" y="400" type="move" smooth="yes"/>
      <point x="400" y="477.268"/>
      <point x="462.732" y="540"/>
      <point x="540" y="540" type="curve" smooth="yes"/>
      <point x="617.268" y="540"/>
      <point x="680" y="477.268"/>
      <point x="680" y="400" type="curve" smooth="yes"/>
      <point x="680" y="322.732"/>
      <point x="617.268" y="260"/>
      <point x="540" y="260" type="curve" smooth="yes"/>
      <point x="462.732" y="260"/>
      <point x="400" y="322.732"/>
      <point x="400" y="400" type="curve" smooth="yes"/>
      <point x="400" y="477.268"/>
      <point x="337.268" y="540"/>
      <point x="260" y="540" type="curve" smooth="yes"/>
      <point x="182.732" y="540"/>
      <point x="120" y="477.268"/>
      <point x="120" y="400" type="curve" smooth="yes"/>
      <point x="120" y="322.732"/>
      <point x="182.732" y="260"/>
      <point x="260" y="260" type="curve" smooth="yes"/>
      <point x="337.268" y="260"/>
      <point x="400" y="322.732"/>
      <point x="400" y="400" type="curve" smooth="yes"/>
    </contour>
  </outline>
</glyph>
<glyph name="uni2221" format="2">
  <advance width="720"/>
  <unicode hex="2221"/>
  <outline>
    <contour>
      <point x="600" y="40" type="move"/>
      <point x="120" y="280" type="line"/>
      <point x="600" y="520" type="line"/>
    </contour>
    <contour>
      <point x="440" y="40" type="move"/>
      <point x="440" y="520" type="line"/>
    </contour>
  </outline>
</glyph>
<glyph name="equivalence" format="2">
  <advance width="560"/>
  <unicode hex="2261"/>
  <outline>
    <contour>
      <point x="120" y="80" type="move"/>
      <point x="440" y="80" type="line"/>
    </contour>
    <contour>
      <point x="120" y="280" type="move"/>
      <point x="440" y="280" type="line"/>
    </contour>
    <contour>
      <point x="120" y="480" type="move"/>
      <point x="440" y="480" type="line"/>
    </contour>
  </outline>
</glyph>
<glyph name="lessequal" format="2">
  <advance width="560"/>
  <unicode hex="2264"/>
  <outline>
    <contour>
      <point x="120" y="80" type="move"/>
      <point x="440" y="80" type="line"/>
    </contour>
    <contour>
      <point x="440" y="280" type="move"/>
      <point x="120" y="400" type="line"/>
      <point x="440" y="520" type="line"/>
    </contour>
  </outline>
</glyph>
<glyph name="uni22B2" format="2">
  <advance width="720"/>
  <unicode hex="22B2"/>
  <outline>
    <contour>
      <point x="600" y="40" type="move"/>
      <point x="120" y="280" type="line"/>
      <point x="600" y="520" type="line"/>
      <point x="600" y="40" type="line"/>
    </contour>
  </outline>
</glyph>
<glyph name="uni22C2" format="2">
  <advance width="560"/>
  <unicode hex="22C2"/>
  <outline>
    <contour>
      <point x="120" y="40" type="move"/>
      <point x="120" y="560" type="line" smooth="yes"/>
      <point x="120" y="648.306"/>
      <point x="191.694" y="720"/>
      <point x="280" y="720" type="curve" smooth="yes"/>
      <point x="368.306" y="720"/>
      <point x="440" y="648.306"/>
      <point x="440" y="560" type="curve" smooth="yes"/>
      <point x="440" y="40" type="line"/>
    </contour>
  </outline>
</glyph>
<glyph name="H22073" format="2">
  <advance width="720"/>
  <unicode hex="25A1"/>
  <outline>
    <contour>
      <point x="120" y="40" type="move"/>
      <point x="600" y="40" type="line"/>
      <point x="600" y="520" type="line"/>
      <point x="120" y="520" type="line"/>
      <point x="120" y="40" type="line"/>
    </contour>
  </outline>
</glyph>
<glyph name="uni2C66" format="2">
  <advance width="480"/>
  <unicode hex="2C66"/>
  <outline>
    <contour>
      <point x="200" y="40" type="move"/>
      <point x="200" y="760" type="line"/>
    </contour>
    <contour>
      <point x="120" y="520" type="move"/>
      <point x="360" y="520" type="line"/>
    </contour>
    <contour>
      <point x="120" y="200" type="move"/>
      <point x="280" y="280" type="line"/>
    </contour>
  </outline>
</glyph>
